<svg xmlns="http://www.w3.org/2000/svg" viewBox="0 0 600 600" width="600" height="600">
<defs><linearGradient id="sky" x1="0" y1="0" x2="0" y2="1"><stop offset="0" stop-color="#5FA8E0"/><stop offset="1" stop-color="#E3F1FB"/></linearGradient>
<linearGradient id="water" x1="0" y1="0" x2="0" y2="1"><stop offset="0" stop-color="#3D8FC6"/><stop offset="1" stop-color="#1D5D8C"/></linearGradient></defs>
<rect width="600" height="600" fill="url(#sky)"/>

<circle cx="470" cy="120" r="55" fill="#FFF0B8" opacity=".95"/>
<path d="M0 470 Q200 430 400 455 Q520 440 600 460 V600 H0 Z" fill="#D9B26F"/>
<rect x="470" y="250" width="40" height="190" fill="#EDE6D6"/><path d="M465 250 L490 200 L515 250 Z" fill="#8E8A80"/>
<rect x="520" y="280" width="34" height="160" fill="#EDE6D6"/><path d="M516 280 L537 238 L558 280 Z" fill="#8E8A80"/>
<rect x="120" y="440" width="330" height="40" fill="#9C8A6C"/>
<rect x="110" y="476" width="350" height="14" fill="#857356"/>
<rect x="150" y="250" width="18" height="190" fill="#B9A88A"/><rect x="145" y="232" width="28" height="20" fill="#F2EBDD"/><path d="M145 232 q14 -12 28 0" fill="#F2EBDD"/><rect x="192" y="250" width="18" height="190" fill="#B9A88A"/><rect x="187" y="232" width="28" height="20" fill="#F2EBDD"/><path d="M187 232 q14 -12 28 0" fill="#F2EBDD"/><rect x="234" y="250" width="18" height="190" fill="#B9A88A"/><rect x="229" y="232" width="28" height="20" fill="#F2EBDD"/><path d="M229 232 q14 -12 28 0" fill="#F2EBDD"/><rect x="276" y="250" width="18" height="190" fill="#B9A88A"/><rect x="271" y="232" width="28" height="20" fill="#F2EBDD"/><path d="M271 232 q14 -12 28 0" fill="#F2EBDD"/><rect x="318" y="250" width="18" height="190" fill="#B9A88A"/><rect x="313" y="232" width="28" height="20" fill="#F2EBDD"/><path d="M313 232 q14 -12 28 0" fill="#F2EBDD"/><rect x="360" y="250" width="18" height="190" fill="#B9A88A"/><rect x="355" y="232" width="28" height="20" fill="#F2EBDD"/><path d="M355 232 q14 -12 28 0" fill="#F2EBDD"/><rect x="402" y="250" width="18" height="190" fill="#B9A88A"/><rect x="397" y="232" width="28" height="20" fill="#F2EBDD"/><path d="M397 232 q14 -12 28 0" fill="#F2EBDD"/>
<rect x="135" y="214" width="300" height="20" fill="#CDBFA2"/>
<rect x="128" y="200" width="314" height="16" fill="#B9A88A"/>
<path d="M80 470 q-20 -60 20 -90 q-30 -40 15 -60 q25 -30 55 0 q45 10 25 55 q35 30 0 70 Z" fill="#6E8B4E"/>
<rect x="105" y="460" width="10" height="40" fill="#5A4632"/>
<path d="M500 500 q-15 -40 15 -60 q-15 -35 20 -40 q35 0 30 40 q25 30 -5 60 Z" fill="#7C9A5A"/>

</svg>