<svg xmlns="http://www.w3.org/2000/svg" viewBox="0 0 600 600" width="600" height="600">
<defs><linearGradient id="sky" x1="0" y1="0" x2="0" y2="1"><stop offset="0" stop-color="#7FB8E8"/><stop offset="1" stop-color="#FCE9C8"/></linearGradient>
<linearGradient id="water" x1="0" y1="0" x2="0" y2="1"><stop offset="0" stop-color="#3D8FC6"/><stop offset="1" stop-color="#1D5D8C"/></linearGradient></defs>
<rect width="600" height="600" fill="url(#sky)"/>

<circle cx="480" cy="110" r="46" fill="#FFF3C4" opacity=".9"/>
<path d="M0 420 Q120 330 230 360 Q330 300 430 350 Q520 320 600 360 V600 H0 Z" fill="#4E8C4A"/>
<path d="M0 470 Q150 410 300 450 Q450 400 600 440 V600 H0 Z" fill="#2F6B35"/>
<g>
<rect x="150" y="250" width="300" height="120" fill="#C9553D"/>
<rect x="150" y="238" width="14" height="12" fill="#C9553D"/><rect x="172" y="238" width="14" height="12" fill="#C9553D"/><rect x="194" y="238" width="14" height="12" fill="#C9553D"/><rect x="216" y="238" width="14" height="12" fill="#C9553D"/><rect x="238" y="238" width="14" height="12" fill="#C9553D"/><rect x="260" y="238" width="14" height="12" fill="#C9553D"/><rect x="282" y="238" width="14" height="12" fill="#C9553D"/><rect x="304" y="238" width="14" height="12" fill="#C9553D"/><rect x="326" y="238" width="14" height="12" fill="#C9553D"/><rect x="348" y="238" width="14" height="12" fill="#C9553D"/><rect x="370" y="238" width="14" height="12" fill="#C9553D"/><rect x="392" y="238" width="14" height="12" fill="#C9553D"/><rect x="414" y="238" width="14" height="12" fill="#C9553D"/><rect x="436" y="238" width="14" height="12" fill="#C9553D"/>
<path d="M170 312 v-16.0 a6.0 6.0 0 0 1 12 0 v16.0 z" fill="#3B2A2A"/><path d="M200 312 v-16.0 a6.0 6.0 0 0 1 12 0 v16.0 z" fill="#3B2A2A"/><path d="M230 312 v-16.0 a6.0 6.0 0 0 1 12 0 v16.0 z" fill="#3B2A2A"/><path d="M260 312 v-16.0 a6.0 6.0 0 0 1 12 0 v16.0 z" fill="#3B2A2A"/><path d="M290 312 v-16.0 a6.0 6.0 0 0 1 12 0 v16.0 z" fill="#3B2A2A"/><path d="M320 312 v-16.0 a6.0 6.0 0 0 1 12 0 v16.0 z" fill="#3B2A2A"/><path d="M350 312 v-16.0 a6.0 6.0 0 0 1 12 0 v16.0 z" fill="#3B2A2A"/><path d="M380 312 v-16.0 a6.0 6.0 0 0 1 12 0 v16.0 z" fill="#3B2A2A"/><path d="M410 312 v-16.0 a6.0 6.0 0 0 1 12 0 v16.0 z" fill="#3B2A2A"/>
<rect x="120" y="180" width="80" height="190" fill="#F2C14E"/>
<rect x="120" y="170" width="12" height="10" fill="#F2C14E"/><rect x="138" y="170" width="12" height="10" fill="#F2C14E"/><rect x="156" y="170" width="12" height="10" fill="#F2C14E"/><rect x="174" y="170" width="12" height="10" fill="#F2C14E"/>
<path d="M120 180 Q160 110 200 180 Z" fill="#E8A93B"/>
<path d="M135 150 L160 92 L185 150 Z" fill="#F2C14E"/><circle cx="160" cy="88" r="6" fill="#E8A93B"/>
<path d="M132 240 v-15.0 a5.0 5.0 0 0 1 10 0 v15.0 z" fill="#3B2A2A"/><path d="M154 240 v-15.0 a5.0 5.0 0 0 1 10 0 v15.0 z" fill="#3B2A2A"/><path d="M176 240 v-15.0 a5.0 5.0 0 0 1 10 0 v15.0 z" fill="#3B2A2A"/>
<rect x="270" y="150" width="70" height="120" fill="#B9A9D9"/>
<rect x="282" y="120" width="46" height="32" fill="#9C8BC4"/>
<path d="M282 120 Q305 70 328 120 Z" fill="#8E7DBE"/>
<circle cx="305" cy="190" r="16" fill="#FFF8E1" stroke="#5B4A8B" stroke-width="4"/>
<path d="M305 180 v10 h8" stroke="#5B4A8B" stroke-width="3" fill="none"/>
<rect x="380" y="200" width="90" height="170" fill="#E9D8B4"/>
<rect x="380" y="190" width="12" height="10" fill="#E9D8B4"/><rect x="398" y="190" width="12" height="10" fill="#E9D8B4"/><rect x="416" y="190" width="12" height="10" fill="#E9D8B4"/><rect x="434" y="190" width="12" height="10" fill="#E9D8B4"/><rect x="452" y="190" width="12" height="10" fill="#E9D8B4"/>
<path d="M400 200 Q425 140 450 200 Z" fill="#C9553D"/>
<path d="M392 264 v-18.0 a6.0 6.0 0 0 1 12 0 v18.0 z" fill="#3B2A2A"/><path d="M418 264 v-18.0 a6.0 6.0 0 0 1 12 0 v18.0 z" fill="#3B2A2A"/><path d="M444 264 v-18.0 a6.0 6.0 0 0 1 12 0 v18.0 z" fill="#3B2A2A"/>
<rect x="230" y="320" width="140" height="50" fill="#A8432F"/>
<path d="M250 370 v-28 a20 20 0 0 1 40 0 v28 z M310 370 v-28 a20 20 0 0 1 40 0 v28 z" fill="#3B2A2A"/>
</g>
<path d="M60 600 Q90 470 140 440 Q190 470 210 600 Z" fill="#1F4F27"/>
<path d="M420 600 Q460 460 520 430 Q570 470 590 600 Z" fill="#1F4F27"/>

</svg>