<svg xmlns="http://www.w3.org/2000/svg" viewBox="0 0 400 260" preserveAspectRatio="xMidYMid slice">
  <rect width="400" height="260" fill="#FCE6EF"/>
  <g fill="none" stroke-width="10" stroke-linecap="round">
    <path d="M30 60c30-20 60 20 90 0" stroke="#F6C343"/>
    <path d="M290 220c30-20 60 20 90 0" stroke="#2F8FE0"/>
    <path d="M300 40c20 10 40-10 60 0" stroke="#F08A3C"/>
    <path d="M24 214c18 12 36-10 56 2" stroke="#3BAA5C"/>
  </g>
  <g transform="rotate(-28 200 140)">
    <path d="M200 120c-34-30-90-10-80 34 6 26 34 30 46 20 10 22 40 26 60 6 24-24 6-74-26-60z" fill="#C2185B"/>
    <circle cx="190" cy="150" r="16" fill="#3B0A1E"/>
    <rect x="214" y="44" width="16" height="96" rx="4" fill="#7A4B22"/>
    <rect x="208" y="28" width="28" height="22" rx="6" fill="#3B0A1E"/>
    <path d="M150 168h50" stroke="#3B0A1E" stroke-width="6" stroke-linecap="round"/>
    <g stroke="#FFFFFF" stroke-width="2"><path d="M218 50v120M222 50v120M226 50v120"/></g>
  </g>
  <g fill="#C2185B">
    <circle cx="300" cy="120" r="12"/><rect x="308" y="66" width="6" height="56"/><path d="M308 66c14 4 24 12 26 24-8-8-16-10-26-10z"/>
    <circle cx="96" cy="140" r="10"/><circle cx="130" cy="130" r="10"/><rect x="102" y="96" width="5" height="44"/><rect x="136" y="86" width="5" height="44"/><path d="M102 96l39-10v10l-39 10z"/>
  </g>
  <g fill="#F6C343"><path d="M340 150l6 12 13 2-10 9 3 13-12-7-12 7 3-13-10-9 13-2z"/></g>
  <circle cx="60" cy="110" r="6" fill="#E86AA0"/>
</svg>
