<svg xmlns="http://www.w3.org/2000/svg" viewBox="0 0 400 260" preserveAspectRatio="xMidYMid slice">
  <rect width="400" height="260" fill="#E0F3F2"/>
  <path d="M40 220c40-60 100-20 140-70s100-30 120-80" fill="none" stroke="#0A706F" stroke-width="5" stroke-dasharray="12 10" stroke-linecap="round"/>
  <path d="M290 54l12-14 12 14-12 14z" fill="#E5484D"/>
  <path d="M290 54h24" stroke="#FFFFFF" stroke-width="3"/>
  <circle cx="118" cy="104" r="54" fill="#FFFFFF" stroke="#0A706F" stroke-width="8"/>
  <path d="M118 62l12 42-12 42-12-42z" fill="#E5484D"/>
  <path d="M118 104l-12 42 12-42 12 42z" fill="#0A706F"/>
  <circle cx="118" cy="104" r="7" fill="#F6C343"/>
  <path d="M250 150l30-26h50l30 26-55 60z" fill="#5FB4F0"/>
  <path d="M250 150h110M280 124l25 86 25-86" fill="none" stroke="#FFFFFF" stroke-width="4"/>
  <g fill="#F6C343">
    <path d="M60 40l5 10 11 2-8 8 2 11-10-5-10 5 2-11-8-8 11-2z"/>
    <path d="M220 60l4 8 9 1-7 6 2 9-8-4-8 4 2-9-7-6 9-1z"/>
  </g>
  <circle cx="40" cy="220" r="10" fill="#F08A3C"/>
  <circle cx="360" cy="220" r="8" fill="#E86AA0"/>
</svg>
